<?xml version="1.0" encoding="utf-8"?>
<!-- Generator: Adobe Illustrator 16.0.0, SVG Export Plug-In . SVG Version: 6.00 Build 0)  -->
<!DOCTYPE svg PUBLIC "-//W3C//DTD SVG 1.1//EN" "http://www.w3.org/Graphics/SVG/1.1/DTD/svg11.dtd">
<svg version="1.1" id="Layer_1" xmlns="http://www.w3.org/2000/svg" xmlns:xlink="http://www.w3.org/1999/xlink" x="0px" y="0px"
	 width="95px" height="45px" viewBox="0 0 95 45" enable-background="new 0 0 95 45" xml:space="preserve">
<path fill="#5182BB" d="M19,1v18H1V1H19 M20,0H0v20h20V0L20,0z"/>
<rect x="2" y="2" fill="#5182BB" width="4" height="4"/>
<rect x="14" y="2" fill="#5182BB" width="4" height="4"/>
<rect x="8" y="2" fill="#5182BB" width="4" height="4"/>
<rect x="2" y="14" fill="#5182BB" width="4" height="4"/>
<rect x="14" y="14" fill="#5182BB" width="4" height="4"/>
<rect x="8" y="14" fill="#5182BB" width="4" height="4"/>
<rect x="2" y="8" fill="#5182BB" width="4" height="4"/>
<rect x="14" y="8" fill="#5182BB" width="4" height="4"/>
<rect x="8" y="8" fill="#5182BB" width="4" height="4"/>
<path fill="#5182BB" d="M44,1v18H26V1H44 M45,0H25v20h20V0L45,0z"/>
<rect x="28" y="3.5" fill="#5182BB" width="14" height="1"/>
<rect x="28" y="15.5" fill="#5182BB" width="14" height="1"/>
<rect x="28" y="11.5" fill="#5182BB" width="14" height="1"/>
<rect x="28" y="7.5" fill="#5182BB" width="14" height="1"/>
<path fill="#666666" d="M10,27c4.41,0,8,3.589,8,8s-3.59,8-8,8c-4.412,0-8-3.589-8-8S5.588,27,10,27 M10,25C4.477,25,0,29.477,0,35
	s4.477,10,10,10c5.521,0,10-4.477,10-10S15.521,25,10,25L10,25z"/>
<path fill="#666666" d="M14.582,36.208c-1.293-1.278-2.584-2.556-3.875-3.833c-0.389-0.385-1.025-0.385-1.414,0
	C8,33.652,6.709,34.93,5.418,36.208C4.5,37.116,5.914,38.53,6.832,37.622c1.057-1.045,2.111-2.089,3.168-3.134
	c1.055,1.044,2.111,2.089,3.168,3.134C14.084,38.529,15.5,37.116,14.582,36.208z"/>
<path fill="#FFFFFF" d="M60,27c4.41,0,8,3.589,8,8s-3.59,8-8,8c-4.412,0-8-3.589-8-8S55.588,27,60,27 M60,25
	c-5.523,0-10,4.477-10,10s4.477,10,10,10c5.521,0,10-4.477,10-10S65.521,25,60,25L60,25z"/>
<path fill="#FFFFFF" d="M64.582,36.208c-1.293-1.278-2.584-2.556-3.875-3.833c-0.389-0.385-1.025-0.385-1.414,0
	c-1.293,1.277-2.584,2.557-3.875,3.833c-0.918,0.908,0.496,2.322,1.414,1.414c1.057-1.045,2.111-2.089,3.168-3.134
	c1.055,1.044,2.111,2.089,3.168,3.134C64.084,38.529,65.5,37.116,64.582,36.208z"/>
<path fill="#E6E6E6" d="M35,27c4.41,0,8,3.589,8,8s-3.59,8-8,8c-4.412,0-8-3.589-8-8S30.588,27,35,27 M35,25
	c-5.523,0-10,4.477-10,10s4.477,10,10,10c5.521,0,10-4.477,10-10S40.521,25,35,25L35,25z"/>
<path fill="#E6E6E6" d="M39.582,36.208c-1.293-1.278-2.584-2.556-3.875-3.833c-0.389-0.385-1.025-0.385-1.414,0
	c-1.293,1.277-2.584,2.557-3.875,3.833c-0.918,0.908,0.496,2.322,1.414,1.414c1.057-1.045,2.111-2.089,3.168-3.134
	c1.055,1.044,2.111,2.089,3.168,3.134C39.084,38.529,40.5,37.116,39.582,36.208z"/>
<path fill="#FFFFFF" d="M87.5,24.999c-4.143,0-7.5,3.358-7.5,7.501c0,1.527,0.46,2.948,1.245,4.134
	c-1.935,1.935-3.867,3.868-5.804,5.802c-1.368,1.369,0.754,3.49,2.123,2.121c1.935-1.934,3.867-3.867,5.802-5.802
	C84.552,39.54,85.973,40,87.5,40c4.143,0,7.501-3.357,7.501-7.5S91.643,24.999,87.5,24.999z M87.5,37c-2.48,0-4.5-2.02-4.5-4.5
	c0-2.482,2.02-4.501,4.5-4.501S92,30.018,92,32.5C92,34.98,89.98,37,87.5,37z"/>
<path fill="#4DA2E7" d="M69,1v18H51V1H69 M70,0H50v20h20V0L70,0z"/>
<rect x="52" y="2" fill="#4DA2E7" width="4" height="4"/>
<rect x="64" y="2" fill="#4DA2E7" width="4" height="4"/>
<rect x="58" y="2" fill="#4DA2E7" width="4" height="4"/>
<rect x="52" y="14" fill="#4DA2E7" width="4" height="4"/>
<rect x="64" y="14" fill="#4DA2E7" width="4" height="4"/>
<rect x="58" y="14" fill="#4DA2E7" width="4" height="4"/>
<rect x="52" y="8" fill="#4DA2E7" width="4" height="4"/>
<rect x="64" y="8" fill="#4DA2E7" width="4" height="4"/>
<rect x="58" y="8" fill="#4DA2E7" width="4" height="4"/>
<path fill="#4DA2E7" d="M94,1v18H76V1H94 M95,0H75v20h20V0L95,0z"/>
<rect x="78" y="3.5" fill="#4DA2E7" width="14" height="1"/>
<rect x="78" y="15.5" fill="#4DA2E7" width="14" height="1"/>
<rect x="78" y="11.5" fill="#4DA2E7" width="14" height="1"/>
<rect x="78" y="7.5" fill="#4DA2E7" width="14" height="1"/>
</svg>
